<?xml version="1.0" standalone="no"?>
<!DOCTYPE svg PUBLIC "-//W3C//DTD SVG 1.1//EN" "http://www.w3.org/Graphics/SVG/1.1/DTD/svg11.dtd" >
<!--
2013-9-30: Created.
-->
<svg>
<metadata>
Created by iconfont
</metadata>
<defs>

<font id="u-icon" horiz-adv-x="1024" >
  <font-face
    font-family="u-icon"
    font-weight="500"
    font-stretch="normal"
    units-per-em="1024"
    ascent="896"
    descent="-128"
  />
    <missing-glyph />
    
    <glyph glyph-name="x" unicode="x" horiz-adv-x="1001"
d="M281 543q-27 -1 -53 -1h-83q-18 0 -36.5 -6t-32.5 -18.5t-23 -32t-9 -45.5v-76h912v41q0 16 -0.5 30t-0.5 18q0 13 -5 29t-17 29.5t-31.5 22.5t-49.5 9h-133v-97h-438v97zM955 310v-52q0 -23 0.5 -52t0.5 -58t-10.5 -47.5t-26 -30t-33 -16t-31.5 -4.5q-14 -1 -29.5 -0.5
t-29.5 0.5h-32l-45 128h-439l-44 -128h-29h-34q-20 0 -45 1q-25 0 -41 9.5t-25.5 23t-13.5 29.5t-4 30v167h911zM163 247q-12 0 -21 -8.5t-9 -21.5t9 -21.5t21 -8.5q13 0 22 8.5t9 21.5t-9 21.5t-22 8.5zM316 123q-8 -26 -14 -48q-5 -19 -10.5 -37t-7.5 -25t-3 -15t1 -14.5
t9.5 -10.5t21.5 -4h37h67h81h80h64h36q23 0 34 12t2 38q-5 13 -9.5 30.5t-9.5 34.5q-5 19 -11 39h-368zM336 498v228q0 11 2.5 23t10 21.5t20.5 15.5t34 6h188q31 0 51.5 -14.5t20.5 -52.5v-227h-327z" />
    

    
    <glyph glyph-name="female" unicode="&#59251;" d="M650.24 199.67999999999995L563.2 199.67999999999995l0 95.15008c108.87168 23.57248 190.73024 120.54528 190.73024 236.35968 0 133.40672-108.52352 241.93024-241.93024 241.93024s-241.93024-108.52352-241.93024-241.93024c0-115.8144 81.83808-212.7872 190.73024-236.35968l0-95.15008-87.04 0c-28.28288 0-51.2-22.91712-51.2-51.2s22.91712-51.2 51.2-51.2L460.8 97.27999999999997l0-97.28c0-28.28288 22.91712-51.2 51.2-51.2s51.2 22.91712 51.2 51.2l0 97.28 87.04 0c28.28288 0 51.2 22.91712 51.2 51.2S678.52288 199.67999999999995 650.24 199.67999999999995zM372.49024 531.18976c0 76.94336 62.58688 139.53024 139.53024 139.53024s139.53024-62.58688 139.53024-139.53024-62.58688-139.53024-139.53024-139.53024S372.49024 454.26688 372.49024 531.18976z"  horiz-adv-x="1024" />

    
    <glyph glyph-name="delete" unicode="&#58890;" d="M871.341646 647.195513l-303.939337-0.148379-0.170892 39.47506c0 21.078061-17.090237 38.169321-38.187741 38.169321-6.952342 0-13.46364-1.868557-19.078521-5.116531-5.616928 3.247974-12.132318 5.116531-19.0908 5.116531-21.081131 0-38.169321-17.09126-38.169321-38.169321l0.179079-39.530318-219.277122-0.106424c-3.091408 0.808412-6.335289 1.24127-9.680477 1.24127-3.357468 0-6.611581-0.436952-9.713222-1.251503l-69.589938-0.033769c-21.078061 0-38.169321-17.092283-38.169321-38.169321 0-21.080108 17.09126-38.169321 38.169321-38.169321l41.154305 0.019443 0.277316-569.828057 0.056282 0 0-40.554648c0-42.159192 34.18252-76.339666 76.341712-76.339666l38.169321 0 0-0.306992 419.869696 0.243547 0 0.063445 38.168298 0c41.632189 0 75.461669 33.338293 76.299757 74.770937l-0.313132 536.877597c0 21.077038-17.09126 38.169321-38.170345 38.169321-21.080108 0-38.171368-17.092283-38.171368-38.169321l0.274246-466.411709c-1.347694-57.45455-17.73185-67.986417-76.240405-67.986417l39.626509-0.972141-433.119465-0.25378 49.929156 1.225921c-59.785641 0-75.583442 10.980076-76.311013 71.752184l0.470721-72.993454-0.51984 0-0.297782 610.745978 225.964428 0.104377c1.039679-0.084934 2.086521-0.140193 3.146667-0.140193 1.073448 0 2.133593 0.055259 3.184529 0.14224l31.610952 0.014326c1.113357-0.097214 2.236947-0.156566 3.374864-0.156566 1.152243 0 2.289136 0.060375 3.415796 0.159636l338.52811 0.156566c21.081131 0 38.170345 17.090237 38.170345 38.169321C909.511991 630.1063 892.422777 647.195513 871.341646 647.195513zM758.58149 22.629785l0.036839-62.528102-0.438998 0L758.58149 22.629785zM262.462179 32.805542l-0.029676 4.586458C262.432503 35.829412 262.443759 34.306732 262.462179 32.805542zM605.383342 533.842863c-21.080108 0-38.170345-17.092283-38.170345-38.169321l0.356111-459.528951c0-21.079084 17.089214-38.172391 38.170345-38.172391 21.077038 0 38.169321 17.093307 38.169321 38.172391l-0.335644 459.528951C643.572106 516.750579 626.480846 533.842863 605.383342 533.842863zM414.533666 533.842863c-21.078061 0-38.169321-17.092283-38.169321-38.169321l0.356111-459.528951c0-21.079084 17.089214-38.172391 38.169321-38.172391 21.081131 0 38.169321 17.093307 38.169321 38.172391l-0.353041 459.528951C452.706057 516.750579 435.63117 533.842863 414.533666 533.842863z"  horiz-adv-x="1024" />

    
    <glyph glyph-name="dropdown" unicode="&#58894;" d="M115.650997 681.239887 908.349003 681.239887 512 9.551932Z"  horiz-adv-x="1024" />

    
    <glyph glyph-name="radiocircle" unicode="&#58886;" d="M512 772.08333333c-215.438 0-390-174.563-390-390s174.563-390 390-390c215.438 0 390 174.563 390 390s-174.563 390-390 390zM512 24.52033332999997c-197.063 0-357.563 160.313-357.563 357.563 0 197.063 160.313 357.563 357.563 357.563 197.063 0 357.563-160.313 357.563-357.563 0-197.063-160.5-357.563-357.563-357.563z"  horiz-adv-x="1024" />

    
    <glyph glyph-name="male" unicode="&#59068;" d="M540.864 619.872l292 0-0.64-295.328-100.128 100.096-94.368-94.368c21.184-37.248 33.376-80.224 33.376-126.112 0-141.376-114.56-256-256-256-141.376 0-256 114.624-256 256s114.624 256 256 256c48.8 0 94.272-13.92 133.12-37.632l93.376 94.592-100.736 102.752zM287.136 204.128c0-70.688 57.312-128 128-128s128 57.312 128 128-57.312 128-128 128-128-57.312-128-128z"  horiz-adv-x="1024" />

    
    <glyph glyph-name="diamond" unicode="&#59005;" d="M121.173197 457.105408l355.977216-379.97568-171.4176 379.97568-184.559616 0zm463.970304-441.114624l199.415808 441.114624-398.831616 0zm-277.696512 514.2528l116.563968 219.414528-149.704704 0-164.560896-219.414528 197.701632 0zm385.6896-453.113856l355.977216 379.97568-184.559616 0zm-302.83776 453.113856l389.689344 0-116.563968 219.414528-156.561408 0zm472.541184 0l197.701632 0-164.560896 219.414528-149.704704 0zm80.566272 277.696512l219.414528-292.552704q7.999488-10.285056 7.428096-23.712768t-9.713664-23.141376l-548.53632-585.105408q-10.285056-11.42784-26.855424-11.42784t-26.855424 11.42784l-548.53632 585.105408q-9.142272 9.713664-9.713664 23.141376t7.428096 23.712768l219.414528 292.552704q10.285056 14.856192 29.140992 14.856192l658.243584 0q18.855936 0 29.140992-14.856192z"  horiz-adv-x="1171" />

    
    <glyph glyph-name="star" unicode="&#58988;" d="M686.285714 322.285714l174.857143 169.714286-241.142857 35.428571-108 218.285714-108-218.285714-241.142857-35.428571 174.857143-169.714286-41.714286-240.571429 216 113.714286 215.428571-113.714286zM987.428571 526.285714q0-12.571429-14.857143-27.428571l-207.428571-202.285714 49.142857-285.714286q0.571429-4 0.571429-11.428571 0-28.571429-23.428571-28.571429-10.857143 0-22.857143 6.857143l-256.571429 134.857143-256.571429-134.857143q-12.571429-6.857143-22.857143-6.857143-12 0-18 8.285714t-6 20.285714q0 3.428571 1.142857 11.428571l49.142857 285.714286-208 202.285714q-14.285714 15.428571-14.285714 27.428571 0 21.142857 32 26.285714l286.857143 41.714286 128.571429 260q10.857143 23.428571 28 23.428571t28-23.428571l128.571429-260 286.857143-41.714286q32-5.142857 32-26.285714z"  horiz-adv-x="1024" />

    
    <glyph glyph-name="errorsquare" unicode="&#58947;" d="M813.478286 801.506882L210.521714 801.506882c-63.815421 0-116.028597-52.213175-116.028597-116.028597l0-602.956571c0-63.815421 52.213175-116.028597 116.028597-116.028597l602.956571 0c63.815421 0 116.028597 52.213175 116.028597 116.028597L929.506882 685.478286C929.506882 749.29473 877.293707 801.506882 813.478286 801.506882zM688.599114 249.01158599999997c11.918447-12.057617 11.805884-31.495318-0.251733-43.414789-5.983271-5.913687-13.783934-8.865925-21.580504-8.865925-7.916297 0-15.8285 3.042289-21.834284 9.117658L512 340.33143099999995 379.067408 205.84853099999998c-6.004761-6.075369-13.917988-9.117658-21.834284-9.117658-7.797593 0-15.597233 2.952238-21.580504 8.865925-12.05864 11.918447-12.171204 31.357172-0.251733 43.414789l133.432988 134.988414L335.400886 518.9884139999999c-11.918447 12.057617-11.806907 31.495318 0.251733 43.414789 12.05864 11.917424 31.496341 11.805884 43.414789-0.251733l132.932592-134.481877L644.932592 562.151469c11.920494 12.05864 31.358195 12.170181 43.414789 0.251733 12.057617-11.919471 12.171204-31.357172 0.251733-43.414789L555.166125 384 688.599114 249.01158599999997z"  horiz-adv-x="1024" />

    
    <glyph glyph-name="errorsquareline" unicode="&#58949;" d="M813.478286 832.206068L210.520691 832.206068c-80.905658 0-146.727783-65.822125-146.727783-146.727783l0-602.957595c0-80.905658 65.822125-146.727783 146.727783-146.727783l602.957595 0c80.905658 0 146.727783 65.821101 146.727783 146.727783L960.206068 685.478286C960.206068 766.383944 894.384967 832.206068 813.478286 832.206068zM898.807696 82.52171399999997c0-47.050596-38.277792-85.329411-85.329411-85.329411L210.520691-2.8076959999999644c-47.050596 0-85.329411 38.277792-85.329411 85.329411L125.19128 685.478286c0 47.050596 38.278815 85.329411 85.329411 85.329411l602.957595 0c47.050596 0 85.329411-38.278815 85.329411-85.329411L898.807696 82.52171399999997zM688.34738 562.4032030000001c-12.056594 11.918447-31.493272 11.806907-43.414789-0.251733L512 427.669592 379.067408 562.151469c-11.918447 12.057617-31.356149 12.170181-43.414789 0.251733-12.05864-11.919471-12.171204-31.357172-0.251733-43.414789l133.432988-134.988414L335.400886 249.01158599999997c-11.918447-12.057617-11.806907-31.495318 0.251733-43.414789 5.983271-5.913687 13.782911-8.865925 21.580504-8.865925 7.916297 0 15.829524 3.043313 21.834284 9.117658L512 340.33143099999995 644.932592 205.84853099999998c6.005784-6.076392 13.917988-9.117658 21.834284-9.117658 7.79657 0 15.597233 2.952238 21.580504 8.865925 12.057617 11.918447 12.171204 31.357172 0.251733 43.414789L555.166125 384l133.432988 134.988414C700.517561 531.047054 700.404997 550.4837319999999 688.34738 562.4032030000001z"  horiz-adv-x="1024" />

    
    <glyph glyph-name="bimiconwrongblack" unicode="&#59152;" d="M959.919031 821.372326c0-19.058055-15.456017-34.504862-34.506908-34.504862L98.586854 786.867464c-19.056008 0-34.506908 15.446807-34.506908 34.504862l0 0c0 19.057031 15.4509 34.506908 34.506908 34.506908l826.825268 0C944.463014 855.879234 959.919031 840.429357 959.919031 821.372326L959.919031 821.372326 959.919031 821.372326 959.919031 821.372326zM959.919031-53.372326c0-19.058055-15.456017-34.505885-34.506908-34.505885L98.586854-87.878211c-19.056008 0-34.506908 15.44783-34.506908 34.505885l0 0c0 19.057031 15.4509 34.506908 34.506908 34.506908l826.825268 0C944.463014-18.866441 959.919031-34.315294 959.919031-53.372326L959.919031-53.372326 959.919031-53.372326 959.919031-53.372326zM959.919031 821.372326M99.094414-87.879234c-19.056008 0-34.506908 15.448854-34.506908 34.507932L64.587506 821.372326c0 19.057031 15.4509 34.506908 34.506908 34.506908l0 0c19.056008 0 34.503838-15.449877 34.503838-34.506908l0-874.743628C133.598252-72.43038 118.150422-87.879234 99.094414-87.879234L99.094414-87.879234 99.094414-87.879234 99.094414-87.879234zM99.094414-87.879234M925.414169-87.879234c-19.057031 0-34.506908 15.448854-34.506908 34.507932L890.907261 821.372326c0 19.057031 15.449877 34.506908 34.506908 34.506908l0 0c19.054985 0 34.502815-15.449877 34.502815-34.506908l0-874.743628C959.916984-72.43038 944.469154-87.879234 925.414169-87.879234L925.414169-87.879234 925.414169-87.879234 925.414169-87.879234zM925.414169-87.879234M940.999123-29.82605 82.999854-29.82605 82.999854 828.174242l857.999268 0L940.999123-29.82605zM201.351356 69.74369c7.182586-7.184633 16.731056-11.142781 26.886347-11.142781 10.158361 0 19.705807 3.957125 26.883277 11.138688l255.1921 258.210853 258.2129-258.20676c7.182586-7.184633 16.731056-11.142781 26.8843-11.142781 10.153244 0 19.699668 3.957125 26.883277 11.140735 7.181563 7.179516 11.133571 16.726963 11.134595 26.878161 0 10.155291-3.954055 19.702738-11.134595 26.883277L564.077587 381.717004 830.232366 644.490779c7.178493 7.181563 11.132548 16.726963 11.132548 26.878161 0 10.151197-3.954055 19.696598-11.138688 26.88737-7.187703 7.182586-16.73515 11.136641-26.886347 11.136641-10.156314 0-19.702738-3.960195-26.877137-11.139711L510.31308 435.488675 247.542374 698.25324c-7.184633 7.18361-16.731056 11.139711-26.885324 11.139711-10.155291 0-19.703761-3.959172-26.883277-11.140735-7.182586-7.185656-11.138688-16.73208-11.138688-26.8843 0-10.149151 3.957125-19.693528 11.139711-26.881231l262.772752-262.768659L201.350332 123.505128c-7.181563-7.184633-11.136641-16.733103-11.136641-26.880207C190.212668 86.476793 194.170816 76.931393 201.351356 69.74369z"  horiz-adv-x="1024" />

    
    <glyph glyph-name="search" unicode="&#58883;" d="M266.181 571.584c0-36.492 29.581-66.075 66.075-66.075s66.075 29.581 66.075 66.075c0 36.492-29.581 66.075-66.075 66.075-36.492 0-66.075-29.581-66.075-66.075zM458.115 14.672c-113.269 0-224.963 44.051-308.346 127.427-81.804 81.804-127.427 191.929-127.427 306.773 0 116.417 45.62 224.963 127.427 306.773 169.905 169.905 445.218 169.905 615.121 0 81.804-81.804 127.427-191.929 127.427-306.773 0-116.417-45.62-224.963-127.427-306.773-12.588-12.588-31.466-12.588-44.051 0s-12.588 31.466 0 44.051c70.796 70.796 108.549 163.616 108.549 262.725s-39.329 191.929-108.549 262.725c-144.738 144.738-380.711 144.738-525.451 0-70.796-70.796-108.549-163.616-108.549-262.725s39.329-191.929 108.549-262.725c94.39-94.39 232.837-130.579 360.261-95.967 17.302 4.722 34.613-4.722 39.329-22.026 4.722-17.302-4.722-34.613-22.026-39.329-39.329-7.867-77.089-14.16-114.844-14.16zM986.707-111.19c-7.867 0-15.732 3.147-22.026 9.437l-229.685 229.685c-12.588 12.588-12.588 31.466 0 44.051s31.466 12.588 44.051 0l229.685-229.685c12.588-12.588 12.588-31.466 0-44.051-6.292-6.292-14.16-9.437-22.026-9.437z"  horiz-adv-x="1024" />

    
    <glyph glyph-name="close" unicode="&#58898;" d="M879.480512 831.979918c-22.23235 0-42.339294-9.080819-56.830333-23.728424l-0.007163 0.007163L511.706311 497.322975 200.77063 808.258657l-0.007163-0.007163c-14.492062 14.647605-34.597983 23.728424-56.830333 23.728424-44.155662 0-79.950913-35.795251-79.950913-79.950913 0-22.23235 9.080819-42.339294 23.728424-56.830333l-0.007163-0.007163 310.935682-310.935682L87.702458 73.319122l0.007163-0.007163c-14.647605-14.492062-23.728424-34.597983-23.728424-56.830333 0-44.155662 35.795251-79.950913 79.950913-79.950913 22.23235 0 42.339294 9.080819 56.830333 23.728424l0.007163-0.007163 310.935682 310.935682 310.935682-310.935682 0.007163 0.007163c14.492062-14.647605 34.597983-23.728424 56.830333-23.728424 44.155662 0 79.950913 35.795251 79.950913 79.950913 0 22.23235-9.080819 42.339294-23.728424 56.830333l0.007163 0.007163L624.77346 384.254803l310.935682 310.935682-0.007163 0.007163c14.647605 14.492062 23.728424 34.597983 23.728424 56.830333C959.431425 796.184667 923.635151 831.979918 879.480512 831.979918z"  horiz-adv-x="1024" />

    
    <glyph glyph-name="user" unicode="&#58926;" d="M862.790932 28.050378c-10.31738 0-19.345088 9.027708-19.345088 19.345088 0 61.904282-118.649874 221.823678-187.002519 251.486146-6.448363 2.579345-10.31738 7.738035-11.607053 14.186398s1.289673 12.896725 6.448363 18.055416c46.428212 39.979849 72.221662 98.015113 72.221662 159.919395 0 117.360202-95.435768 211.506297-211.506297 211.506297-117.360202 0-211.506297-95.435768-211.506297-211.506297 0-60.61461 25.793451-118.649874 72.221662-159.919395 5.15869-3.869018 7.738035-11.607053 6.448363-18.055416s-5.15869-11.607053-11.607053-14.186398C299.20403 269.219144 180.554156 109.299748 180.554156 47.395466c0-10.31738-9.027708-19.345088-19.345088-19.345088S141.86398 35.788413 141.86398 47.395466c0 76.09068 107.042821 220.534005 185.712846 273.410579-42.559194 46.428212-67.062972 107.042821-67.062972 170.236776C260.513854 627.748111 374.005038 741.239295 512 741.239295c137.994962 0 250.196474-112.201511 250.196474-250.196474 0-63.193955-24.503778-123.808564-67.062972-170.236776 78.670025-52.876574 185.712846-197.319899 185.712846-273.410579C882.13602 35.788413 873.108312 28.050378 862.790932 28.050378z"  horiz-adv-x="1024" />

    
    <glyph glyph-name="down" unicode="&#59141;" d="M651.560546 236.916107l221.709521 221.708498c32.651654 32.652677 32.651654 85.591377 0 118.244055-32.652677 32.652677-85.591377 32.652677-118.244055 0L544.782637 366.181169c-17.272385-15.095813-44.333718-17.229406-61.45363 0L272.196379 576.867636c-32.652677 32.652677-85.590354 32.652677-118.242008 0-32.652677-32.652677-32.652677-85.591377 0-118.244055l221.705428-221.704404C470.584752 141.994224 551.996946 137.351484 651.560546 236.916107L651.560546 236.916107zM651.560546 236.916107"  horiz-adv-x="1024" />

    
    <glyph glyph-name="address" unicode="&#58880;" d="M373.128767 867.945205c-147.287671-57.512329-256.70137-223.035616-242.673973-367.517808 7.013699-82.761644 86.969863-249.687671 199.189041-418.016438 110.816438-165.523288 166.926027-223.035616 200.591781-201.994521 46.290411 28.054795 210.410959 262.312329 283.353425 402.586301 85.567123 168.328767 98.191781 239.868493 63.123288 347.879452-68.734247 206.20274-302.991781 315.616438-503.583562 237.063014z m311.408219-88.372603c88.372603-57.512329 133.260274-136.065753 140.273973-239.868493 5.610959-79.956164 1.40274-93.983562-65.928767-225.841096-88.372603-173.939726-207.605479-336.657534-246.882192-336.657534-39.276712 0-158.509589 162.717808-245.479452 333.852055-56.109589 110.816438-70.136986 151.49589-70.136986 207.605479 0 120.635616 63.123288 223.035616 172.536986 277.742466 86.969863 44.887671 235.660274 36.471233 315.616438-16.832877zM432.043836 649.117808c-75.747945-40.679452-102.4-141.676712-57.512329-217.424658 23.846575-40.679452 93.983562-82.761644 137.468493-82.761644 43.484932 0 113.621918 42.082192 137.468493 82.761644 82.761644 140.273973-74.345205 295.978082-217.424658 217.424658z"  horiz-adv-x="1024" />

    
    <glyph glyph-name="add" unicode="&#58902;" d="M896 469.333333L597.333333 469.333333 597.333333 768 426.666667 768 426.666667 469.333333 128 469.333333 128 298.66666699999996 426.666667 298.66666699999996 426.666667 0 597.333333 0 597.333333 298.66666699999996 896 298.66666699999996Z"  horiz-adv-x="1024" />

    
    <glyph glyph-name="radio" unicode="&#58897;" d="M511.688403 384.25378m-223.879953 0a218.781 218.781 0 1 0 447.759907 0 218.781 218.781 0 1 0-447.759907 0ZM511.685261 768.013383c-211.942303 0-383.757412-171.811112-383.757412-383.757812 0-211.943302 171.815109-383.758412 383.757412-383.758412 211.941704 0 383.76081 171.815109 383.76081 383.758412C895.446072 596.202271 723.626965 768.013383 511.685261 768.013383L511.685261 768.013383zM511.685261 43.771619c-188.039509 0-340.482353 152.440246-340.482353 340.483752 0 188.041508 152.442844 340.482753 340.482353 340.482753 188.044106 0 340.48635-152.441245 340.48635-340.482753C852.171412 196.211864 699.729168 43.771619 511.685261 43.771619L511.685261 43.771619z"  horiz-adv-x="1024" />

    
    <glyph glyph-name="checkbox" unicode="&#59332;" d="M832 832H192C128 832 64 768 64 704v-640c0-64 64-128 128-128h640c64 0 128 64 128 128V704c0 64-64 128-128 128z m64-704c0-120-38.656-128-128-128H256c-115.968 0-128 35.968-128 128V640c0 92.032 2.688 128 128 128h512c121.344 0 128-40 128-128v-512z"  horiz-adv-x="1024" />

    
    <glyph glyph-name="checkboxchecked" unicode="&#59333;" d="M832 832H192C128 832 64 768 64 704v-640c0-64 64-128 128-128h640c64 0 128 64 128 128V704c0 64-64 128-128 128z m64-704c0-120-38.656-128-128-128H256c-115.968 0-128 35.968-128 128V640c0 92.032 2.688 128 128 128h512c121.344 0 128-40 128-128v-512zM425.984 297.34400000000005L283.52 439.808 198.016 354.304 424.256 128l407.296 407.296-83.776 83.776z"  horiz-adv-x="1024" />

    
    <glyph glyph-name="heart" unicode="&#58903;" d="M534.56 658.368l-22.016-15.424-21.888 15.616c-64.032 45.76-127.68 69.024-185.888 69.024-98.944 0-175.104-66.24-196.16-171.872-38.176-189.376 106.24-401.184 406.016-515.552-2.688 0.256-3.36 0.128-4-0.128 299.2 116.992 442.88 328.64 404.8 516.16-21.76 104.544-97.504 169.92-196.224 169.92-57.216 0-120.96-23.104-184.64-67.744z m418.912-93.632c37.12-182.592-81.184-426.496-429.12-562.528-3.84-1.472-7.712-2.208-11.584-2.208s-7.744 0.736-11.616 2.24C152.448 135.232 33.376 379.904 70.496 563.968 95.232 688.16 187.232 768 304.768 768c66.496 0 137.6-25.856 208-76.16 69.568 48.8 140.704 74.688 206.432 74.688 117.536 0 208.768-79.104 234.272-201.792z"  horiz-adv-x="1024" />

    
    <glyph glyph-name="moreright" unicode="&#58887;" d="M512-37.626712999999995c232.858442 0 421.626713 188.767248 421.626713 421.626713S744.858442 805.626713 512 805.626713 90.373287 616.858442 90.373287 384 279.141558-37.626712999999995 512-37.626712999999995zM391.210983 528.646378c-25.154913 25.154913-25.154913 62.887282 0 88.044242 12.577456 12.577456 25.154913 18.865673 44.022633 18.865673s31.445176-6.287193 44.022632-18.865673l188.669011-188.669011c25.154913-25.154913 25.154913-62.889329 0-88.044242L479.255225 151.308357c-25.154913-25.154913-62.889329-25.154913-88.044242 0-25.154913 25.15696-25.154913 62.889329 0 88.044242l144.646378 144.646378-144.646378 144.647401z"  horiz-adv-x="1024" />

    
    <glyph glyph-name="right" unicode="&#58888;" d="M1088.403 544.886L658.995 115.47799999999995 336.993 437.555l107.334 107.334L658.996 330.22l322.077 322.002 107.334-107.334z"  horiz-adv-x="1433" />

    


  </font>
</defs>
</svg>
